# xmcd CD database file
#
# Track frame offsets:
#	150
#	15525
#	30910
#	41107
#	53187
#	71262
#	85887
#	102595
#	117637
#	133915
#	151522
#	162370
#	177187
#	192727
#
# Disc length: 2941 seconds
#
# Revision: 3
# Processed by: cddbd v1.5.2PL0 Copyright (c) Steve Scherf et al.
# Submitted via: CDex 1.51
#
DISCID=ba0b7b0e
DTITLE=Etta James - These Foolish Things - The Classic BalLadry Of Etta James
DYEAR=1900
DGENRE=Blues
TTITLE0=Only Time Will Tell
TTITLE1=I Want To Be Loved (But Only By You)
TTITLE2=Prisoner Of Love
TTITLE3=How Do You Speak To An Angel?
TTITLE4=These Foolish Things
TTITLE5=You Can't Talk To A Fool
TTITLE6=Again
TTITLE7=Tomorrow Night
TTITLE8=Don't Take Your Love From Me
TTITLE9=Lover Man (Oh, Where Can You Be)
TTITLE10=Don't Blame Me
TTITLE11=I Won't Cry Anymore
TTITLE12=Tell It Like It Is
TTITLE13=Hold Back The Tears
EXTD=
EXTT0=
EXTT1=
EXTT2=
EXTT3=
EXTT4=
EXTT5=
EXTT6=
EXTT7=
EXTT8=
EXTT9=
EXTT10=
EXTT11=
EXTT12=
EXTT13=
PLAYORDER=
